# xmcd
#
# Track frame offsets: 
#        150
#        15829
#        28272
#        45470
#        57777
#        71567
#        85320
#        101944
#        115660
#        128630
#
# Disc length: 1967 seconds
#
# Revision: 2
# Processed by: cddbd v1.5.2PL0 Copyright (c) Steve Scherf et al.
# Submitted via: ExactAudioCopy v1.0b4
#
DISCID=7a07ad0a
DTITLE=Kris Kristofferson - Shake hands with the devil
DYEAR=1979
DGENRE=
TTITLE0=Shake hands with the devil
TTITLE1=Prove it to you one more time again
TTITLE2=Whiskey, whiskey
TTITLE3=Lucky in love
TTITLE4=Seadream
TTITLE5=Killer barracuda
TTITLE6=Come sundown
TTITLE7=Michoacan
TTITLE8=Once more with feeling
TTITLE9=Fallen angel
EXTD=
EXTT0=
EXTT1=
EXTT2=
EXTT3=
EXTT4=
EXTT5=
EXTT6=
EXTT7=
EXTT8=
EXTT9=
PLAYORDER=
